<?xml version="1.0" encoding="UTF-8" standalone="no"?>
<!DOCTYPE svg PUBLIC "-//W3C//DTD SVG 1.1//EN"
 "http://www.w3.org/Graphics/SVG/1.1/DTD/svg11.dtd">
<!-- Generated by graphviz version 2.43.0 (0)
 -->
<!-- Title: G Pages: 1 -->
<svg width="561pt" height="46pt"
 viewBox="0.00 0.00 561.00 46.00" xmlns="http://www.w3.org/2000/svg" xmlns:xlink="http://www.w3.org/1999/xlink">
<g id="graph0" class="graph" transform="scale(1 1) rotate(0) translate(4 42)">
<title>G</title>
<polygon fill="white" stroke="transparent" points="-4,4 -4,-42 557,-42 557,4 -4,4"/>
<!-- VPC -->
<g id="node1" class="node">
<title>VPC</title>
<path fill="none" stroke="#6c8ebf" d="M205,-38C205,-38 12,-38 12,-38 6,-38 0,-32 0,-26 0,-26 0,-12 0,-12 0,-6 6,0 12,0 12,0 205,0 205,0 211,0 217,-6 217,-12 217,-12 217,-26 217,-26 217,-32 211,-38 205,-38"/>
<text text-anchor="middle" x="108.5" y="-22.8" font-family="Times,serif" font-size="14.00">Google Cloud VPC</text>
<text text-anchor="middle" x="108.5" y="-7.8" font-family="Times,serif" font-size="14.00">Subnets: us&#45;east1, us&#45;west1</text>
</g>
<!-- OnPrem -->
<g id="node2" class="node">
<title>OnPrem</title>
<path fill="none" stroke="#6c8ebf" d="M541,-37C541,-37 392,-37 392,-37 386,-37 380,-31 380,-25 380,-25 380,-13 380,-13 380,-7 386,-1 392,-1 392,-1 541,-1 541,-1 547,-1 553,-7 553,-13 553,-13 553,-25 553,-25 553,-31 547,-37 541,-37"/>
<text text-anchor="middle" x="466.5" y="-15.3" font-family="Times,serif" font-size="14.00">On&#45;Premises Network</text>
</g>
<!-- VPC&#45;&gt;OnPrem -->
<g id="edge1" class="edge">
<title>VPC&#45;&gt;OnPrem</title>
<path fill="none" stroke="#000000" d="M217.28,-19C265.8,-19 322.61,-19 369.63,-19"/>
<polygon fill="#000000" stroke="#000000" points="369.82,-22.5 379.82,-19 369.82,-15.5 369.82,-22.5"/>
<text text-anchor="middle" x="298.5" y="-22.8" font-family="Times,serif" font-size="14.00" fill="#000000">IPsec VPN Tunnel</text>
</g>
</g>
</svg>
