<?xml version="1.0" encoding="UTF-8" standalone="no"?>
<!DOCTYPE svg PUBLIC "-//W3C//DTD SVG 1.1//EN"
 "http://www.w3.org/Graphics/SVG/1.1/DTD/svg11.dtd">
<!-- Generated by graphviz version 2.43.0 (0)
 -->
<!-- Title: G Pages: 1 -->
<svg width="795pt" height="44pt"
 viewBox="0.00 0.00 795.00 44.00" xmlns="http://www.w3.org/2000/svg" xmlns:xlink="http://www.w3.org/1999/xlink">
<g id="graph0" class="graph" transform="scale(1 1) rotate(0) translate(4 40)">
<title>G</title>
<polygon fill="white" stroke="transparent" points="-4,4 -4,-40 791,-40 791,4 -4,4"/>
<!-- GoogleCloud -->
<g id="node1" class="node">
<title>GoogleCloud</title>
<path fill="none" stroke="#6c8ebf" d="M100,-36C100,-36 12,-36 12,-36 6,-36 0,-30 0,-24 0,-24 0,-12 0,-12 0,-6 6,0 12,0 12,0 100,0 100,0 106,0 112,-6 112,-12 112,-12 112,-24 112,-24 112,-30 106,-36 100,-36"/>
<text text-anchor="middle" x="56" y="-14.3" font-family="Times,serif" font-size="14.00">Google Cloud</text>
</g>
<!-- ColoFacility -->
<g id="node3" class="node">
<title>ColoFacility</title>
<path fill="none" stroke="#6c8ebf" d="M462,-36C462,-36 328,-36 328,-36 322,-36 316,-30 316,-24 316,-24 316,-12 316,-12 316,-6 322,0 328,0 328,0 462,0 462,0 468,0 474,-6 474,-12 474,-12 474,-24 474,-24 474,-30 468,-36 462,-36"/>
<text text-anchor="middle" x="395" y="-14.3" font-family="Times,serif" font-size="14.00">Co&#45;Location Facility</text>
</g>
<!-- GoogleCloud&#45;&gt;ColoFacility -->
<g id="edge1" class="edge">
<title>GoogleCloud&#45;&gt;ColoFacility</title>
<path fill="none" stroke="#000000" d="M112.27,-18C164.72,-18 244.4,-18 305.66,-18"/>
<polygon fill="#000000" stroke="#000000" points="305.71,-21.5 315.71,-18 305.71,-14.5 305.71,-21.5"/>
<text text-anchor="middle" x="214" y="-21.8" font-family="Times,serif" font-size="14.00" fill="#000000">Dedicated Interconnect</text>
</g>
<!-- OnPrem -->
<g id="node2" class="node">
<title>OnPrem</title>
<path fill="none" stroke="#6c8ebf" d="M775,-36C775,-36 626,-36 626,-36 620,-36 614,-30 614,-24 614,-24 614,-12 614,-12 614,-6 620,0 626,0 626,0 775,0 775,0 781,0 787,-6 787,-12 787,-12 787,-24 787,-24 787,-30 781,-36 775,-36"/>
<text text-anchor="middle" x="700.5" y="-14.3" font-family="Times,serif" font-size="14.00">On&#45;Premises Network</text>
</g>
<!-- ColoFacility&#45;&gt;OnPrem -->
<g id="edge2" class="edge">
<title>ColoFacility&#45;&gt;OnPrem</title>
<path fill="none" stroke="#000000" d="M474.16,-18C513.67,-18 561.96,-18 603.69,-18"/>
<polygon fill="#000000" stroke="#000000" points="603.87,-21.5 613.87,-18 603.87,-14.5 603.87,-21.5"/>
<text text-anchor="middle" x="544" y="-21.8" font-family="Times,serif" font-size="14.00" fill="#000000">Cross&#45;Connect</text>
</g>
</g>
</svg>
