<?xml version="1.0" encoding="UTF-8" standalone="no"?>
<!DOCTYPE svg PUBLIC "-//W3C//DTD SVG 1.1//EN"
 "http://www.w3.org/Graphics/SVG/1.1/DTD/svg11.dtd">
<!-- Generated by graphviz version 2.43.0 (0)
 -->
<!-- Title: G Pages: 1 -->
<svg width="363pt" height="98pt"
 viewBox="0.00 0.00 363.00 98.00" xmlns="http://www.w3.org/2000/svg" xmlns:xlink="http://www.w3.org/1999/xlink">
<g id="graph0" class="graph" transform="scale(1 1) rotate(0) translate(4 94)">
<title>G</title>
<polygon fill="white" stroke="transparent" points="-4,4 -4,-94 359,-94 359,4 -4,4"/>
<!-- HA_VPN -->
<g id="node1" class="node">
<title>HA_VPN</title>
<path fill="none" stroke="#6c8ebf" d="M129,-63C129,-63 12,-63 12,-63 6,-63 0,-57 0,-51 0,-51 0,-39 0,-39 0,-33 6,-27 12,-27 12,-27 129,-27 129,-27 135,-27 141,-33 141,-39 141,-39 141,-51 141,-51 141,-57 135,-63 129,-63"/>
<text text-anchor="middle" x="70.5" y="-41.3" font-family="Times,serif" font-size="14.00">HA VPN Gateway</text>
</g>
<!-- Peer1 -->
<g id="node2" class="node">
<title>Peer1</title>
<path fill="none" stroke="#6c8ebf" d="M343,-90C343,-90 252,-90 252,-90 246,-90 240,-84 240,-78 240,-78 240,-66 240,-66 240,-60 246,-54 252,-54 252,-54 343,-54 343,-54 349,-54 355,-60 355,-66 355,-66 355,-78 355,-78 355,-84 349,-90 343,-90"/>
<text text-anchor="middle" x="297.5" y="-68.3" font-family="Times,serif" font-size="14.00">Peer Device 1</text>
</g>
<!-- HA_VPN&#45;&gt;Peer1 -->
<g id="edge1" class="edge">
<title>HA_VPN&#45;&gt;Peer1</title>
<path fill="none" stroke="#000000" d="M141.15,-53.36C169.43,-56.75 201.95,-60.65 229.91,-64.01"/>
<polygon fill="#000000" stroke="#000000" points="229.64,-67.5 239.99,-65.22 230.47,-60.55 229.64,-67.5"/>
<text text-anchor="middle" x="190.5" y="-65.8" font-family="Times,serif" font-size="14.00" fill="#000000">Tunnel 1</text>
</g>
<!-- Peer2 -->
<g id="node3" class="node">
<title>Peer2</title>
<path fill="none" stroke="#6c8ebf" d="M343,-36C343,-36 252,-36 252,-36 246,-36 240,-30 240,-24 240,-24 240,-12 240,-12 240,-6 246,0 252,0 252,0 343,0 343,0 349,0 355,-6 355,-12 355,-12 355,-24 355,-24 355,-30 349,-36 343,-36"/>
<text text-anchor="middle" x="297.5" y="-14.3" font-family="Times,serif" font-size="14.00">Peer Device 2</text>
</g>
<!-- HA_VPN&#45;&gt;Peer2 -->
<g id="edge2" class="edge">
<title>HA_VPN&#45;&gt;Peer2</title>
<path fill="none" stroke="#000000" d="M141.15,-36.64C169.43,-33.25 201.95,-29.35 229.91,-25.99"/>
<polygon fill="#000000" stroke="#000000" points="230.47,-29.45 239.99,-24.78 229.64,-22.5 230.47,-29.45"/>
<text text-anchor="middle" x="190.5" y="-36.8" font-family="Times,serif" font-size="14.00" fill="#000000">Tunnel 2</text>
</g>
</g>
</svg>
