<?xml version="1.0" encoding="UTF-8" standalone="no"?>
<!DOCTYPE svg PUBLIC "-//W3C//DTD SVG 1.1//EN"
 "http://www.w3.org/Graphics/SVG/1.1/DTD/svg11.dtd">
<!-- Generated by graphviz version 2.43.0 (0)
 -->
<!-- Title: G Pages: 1 -->
<svg width="450pt" height="46pt"
 viewBox="0.00 0.00 450.00 46.00" xmlns="http://www.w3.org/2000/svg" xmlns:xlink="http://www.w3.org/1999/xlink">
<g id="graph0" class="graph" transform="scale(1 1) rotate(0) translate(4 42)">
<title>G</title>
<polygon fill="white" stroke="transparent" points="-4,4 -4,-42 446,-42 446,4 -4,4"/>
<!-- VPC_A -->
<g id="node1" class="node">
<title>VPC_A</title>
<path fill="none" stroke="#6c8ebf" d="M146,-38C146,-38 12,-38 12,-38 6,-38 0,-32 0,-26 0,-26 0,-12 0,-12 0,-6 6,0 12,0 12,0 146,0 146,0 152,0 158,-6 158,-12 158,-12 158,-26 158,-26 158,-32 152,-38 146,-38"/>
<text text-anchor="middle" x="79" y="-22.8" font-family="Times,serif" font-size="14.00">VPC Network A</text>
<text text-anchor="middle" x="79" y="-7.8" font-family="Times,serif" font-size="14.00">Subnet: 10.0.1.0/24</text>
</g>
<!-- VPC_B -->
<g id="node2" class="node">
<title>VPC_B</title>
<path fill="none" stroke="#6c8ebf" d="M430,-38C430,-38 296,-38 296,-38 290,-38 284,-32 284,-26 284,-26 284,-12 284,-12 284,-6 290,0 296,0 296,0 430,0 430,0 436,0 442,-6 442,-12 442,-12 442,-26 442,-26 442,-32 436,-38 430,-38"/>
<text text-anchor="middle" x="363" y="-22.8" font-family="Times,serif" font-size="14.00">VPC Network B</text>
<text text-anchor="middle" x="363" y="-7.8" font-family="Times,serif" font-size="14.00">Subnet: 10.0.2.0/24</text>
</g>
<!-- VPC_A&#45;&gt;VPC_B -->
<g id="edge1" class="edge">
<title>VPC_A&#45;&gt;VPC_B</title>
<path fill="none" stroke="#000000" d="M158.18,-19C193.94,-19 236.47,-19 273.41,-19"/>
<polygon fill="#000000" stroke="#000000" points="273.67,-22.5 283.67,-19 273.67,-15.5 273.67,-22.5"/>
<text text-anchor="middle" x="221" y="-22.8" font-family="Times,serif" font-size="14.00" fill="#000000">VPC Peering</text>
</g>
</g>
</svg>
